<?xml version="1.0" standalone="no"?>
<!DOCTYPE svg PUBLIC "-//W3C//DTD SVG 20010904//EN"
 "http://www.w3.org/TR/2001/REC-SVG-20010904/DTD/svg10.dtd">
<svg version="1.0" xmlns="http://www.w3.org/2000/svg"
 width="2000.000000pt" height="2000.000000pt" viewBox="0 0 2000.000000 2000.000000"
 preserveAspectRatio="xMidYMid meet">

<g transform="translate(0.000000,2000.000000) scale(0.100000,-0.100000)"
fill="#000000" stroke="none">
<path d="M0 10000 l0 -10000 10000 0 10000 0 0 10000 0 10000 -10000 0 -10000
0 0 -10000z m10038 7898 c11 -14 13 -26 36 -248 9 -85 18 -165 21 -177 3 -12
12 -87 20 -165 18 -164 36 -326 65 -583 12 -99 27 -236 35 -305 15 -143 29
-262 50 -440 26 -220 36 -312 50 -440 8 -69 23 -206 35 -305 32 -279 50 -438
65 -584 8 -73 17 -148 20 -165 3 -17 12 -96 21 -176 31 -299 44 -413 49 -444
3 -17 12 -94 21 -171 24 -225 42 -381 58 -525 23 -196 55 -481 66 -584 5 -49
14 -94 18 -98 5 -5 40 -13 78 -19 65 -9 219 -35 274 -45 24 -4 28 1 59 83 19
48 40 102 47 118 7 17 38 95 69 175 32 80 90 228 130 330 40 102 94 239 120
305 25 66 52 134 59 150 8 17 25 59 39 95 39 99 96 248 124 320 25 66 44 113
73 185 25 61 45 111 84 213 72 186 108 278 121 307 7 17 25 62 40 100 119 307
113 295 151 295 54 0 58 -14 39 -152 -34 -243 -44 -315 -65 -448 -27 -174 -64
-421 -95 -635 -8 -60 -20 -132 -25 -160 -6 -27 -15 -84 -20 -125 -17 -133 -38
-280 -45 -310 -4 -16 -13 -73 -20 -127 -25 -178 -35 -247 -50 -338 -21 -135
-35 -230 -50 -335 -8 -52 -19 -126 -25 -164 -6 -38 -7 -73 -3 -76 5 -4 49 -22
98 -40 50 -18 132 -50 183 -71 109 -44 86 -55 202 101 41 55 105 141 142 190
37 49 115 156 175 237 59 82 112 153 118 159 5 7 42 55 80 109 39 53 115 157
170 231 103 139 204 275 370 499 53 72 134 182 181 245 47 63 115 156 151 205
36 50 74 101 84 115 27 34 102 136 234 315 61 82 151 204 200 271 50 66 171
231 270 365 241 326 342 462 352 474 5 6 51 69 103 140 52 72 99 135 105 142
5 6 37 48 70 94 70 97 300 406 320 432 17 19 38 22 66 7 24 -13 25 -58 3 -108
-23 -50 -49 -110 -67 -152 -9 -19 -27 -61 -41 -93 -14 -32 -26 -59 -26 -62 0
-2 -16 -39 -36 -82 -20 -43 -44 -98 -54 -123 -10 -25 -32 -75 -49 -113 -17
-37 -31 -69 -31 -72 0 -2 -13 -32 -29 -67 -16 -35 -48 -108 -71 -163 -24 -55
-54 -125 -67 -155 -14 -30 -31 -68 -38 -85 -8 -16 -25 -56 -39 -88 -14 -32
-26 -60 -26 -62 0 -2 -11 -28 -24 -57 -14 -29 -55 -123 -92 -208 -37 -85 -77
-178 -90 -207 -13 -28 -24 -54 -24 -57 0 -3 -13 -34 -29 -68 -16 -35 -58 -130
-94 -213 -35 -82 -74 -170 -85 -195 -11 -25 -42 -94 -67 -155 -26 -60 -58
-132 -70 -160 -12 -27 -77 -176 -144 -330 -66 -154 -285 -656 -485 -1115 -200
-459 -361 -840 -359 -847 3 -6 40 -39 83 -72 43 -34 102 -81 131 -106 29 -25
56 -45 59 -45 5 0 98 72 250 194 30 24 91 73 135 107 44 35 85 68 92 74 6 5
49 40 95 76 45 36 227 180 403 320 176 140 354 281 395 314 41 32 77 62 80 65
3 3 79 64 170 135 91 72 174 137 185 147 18 15 267 213 290 230 6 4 37 30 70
57 32 27 66 52 75 54 27 7 59 -11 66 -37 5 -21 -10 -46 -94 -153 -55 -71 -109
-139 -121 -153 -11 -14 -24 -29 -28 -35 -31 -39 -146 -184 -203 -255 -110
-137 -346 -434 -465 -585 -60 -77 -119 -151 -131 -165 -12 -14 -104 -128 -204
-255 -100 -126 -213 -268 -250 -315 -178 -221 -270 -339 -270 -348 0 -6 39
-57 86 -113 48 -57 109 -131 136 -166 55 -69 45 -68 151 -19 29 13 97 43 151
66 54 23 106 46 115 51 9 4 44 20 78 34 35 14 87 36 115 49 29 13 170 75 313
136 143 62 283 123 310 135 46 21 942 411 2825 1230 426 185 789 343 806 350
139 63 168 75 185 75 24 0 52 -43 45 -68 -4 -10 -142 -120 -309 -243 -166
-123 -396 -293 -512 -379 -115 -85 -220 -162 -232 -170 -11 -8 -140 -103 -285
-211 -144 -107 -524 -388 -843 -624 -319 -236 -677 -501 -796 -589 -119 -89
-254 -188 -300 -222 -349 -255 -1099 -813 -1099 -818 0 -4 26 -69 45 -111 7
-16 25 -63 39 -103 40 -112 42 -115 79 -107 30 6 167 27 392 60 177 26 364 54
530 80 88 14 136 21 342 50 56 8 112 17 125 20 13 3 73 12 133 21 110 15 182
25 435 64 74 11 180 27 235 35 55 8 161 23 235 35 235 37 334 48 352 38 20
-10 34 -51 23 -68 -8 -14 -62 -38 -205 -94 -355 -137 -430 -166 -465 -181 -16
-8 -95 -39 -175 -70 -80 -31 -176 -69 -214 -85 -38 -17 -73 -30 -78 -30 -5 0
-28 -8 -51 -18 -60 -26 -109 -46 -217 -87 -52 -20 -109 -43 -127 -51 -17 -7
-34 -14 -38 -14 -4 0 -21 -6 -38 -14 -32 -14 -202 -81 -332 -131 -86 -32 -137
-53 -192 -77 -23 -10 -45 -18 -48 -18 -4 0 -21 -6 -38 -14 -30 -13 -63 -26
-311 -123 -54 -21 -101 -44 -104 -52 -3 -8 2 -53 11 -100 59 -315 86 -582 86
-876 1 -210 -1 -219 -62 -253 -30 -16 -318 -17 -5432 -20 -5039 -2 -5403 -1
-5438 14 -68 31 -77 59 -77 236 0 225 33 578 75 813 31 174 33 185 21 193 -13
10 -223 94 -491 197 -38 15 -84 33 -102 41 -17 8 -34 14 -38 14 -4 0 -21 6
-38 14 -18 8 -97 40 -177 71 -197 77 -404 158 -910 358 -396 157 -544 215
-665 261 -175 68 -192 76 -202 100 -14 29 1 64 30 71 12 3 86 -3 162 -15 77
-11 183 -27 235 -35 52 -7 158 -23 235 -35 77 -11 228 -34 335 -50 107 -16
258 -39 335 -50 258 -39 319 -48 425 -64 58 -9 166 -25 240 -36 74 -11 180
-27 235 -35 55 -8 161 -24 235 -35 244 -38 353 -51 366 -46 7 3 17 20 23 38 5
18 28 80 51 138 24 58 43 114 44 126 1 17 -52 60 -244 202 -308 227 -372 275
-705 522 -148 110 -315 233 -370 274 -55 40 -188 138 -295 217 -107 80 -253
187 -324 239 -71 52 -205 151 -297 220 -93 69 -221 164 -286 212 -104 77 -261
193 -698 516 -66 49 -183 136 -260 192 -219 161 -362 267 -465 344 -52 39
-168 125 -258 191 -148 109 -162 122 -162 150 0 36 16 55 46 55 17 0 134 -47
299 -120 114 -51 136 -60 140 -60 2 0 28 -11 57 -24 120 -55 196 -89 253 -113
33 -14 74 -31 90 -38 17 -8 55 -24 85 -38 30 -13 89 -39 130 -56 108 -46 106
-45 206 -90 50 -23 93 -41 97 -41 3 0 40 -16 84 -36 100 -45 91 -42 268 -117
83 -36 177 -77 210 -91 88 -40 93 -42 180 -79 44 -19 100 -44 125 -55 25 -11
90 -39 144 -62 55 -23 122 -52 150 -65 98 -45 2451 -1068 2467 -1072 10 -3 56
46 140 148 68 83 129 159 136 168 10 13 -13 46 -144 211 -85 107 -223 281
-306 385 -347 436 -1030 1294 -1189 1493 -122 152 -136 182 -102 216 8 9 24
16 34 16 16 0 139 -90 260 -191 25 -21 126 -102 225 -180 99 -79 266 -211 370
-294 105 -83 280 -223 390 -310 379 -301 840 -669 918 -732 44 -35 85 -63 93
-63 12 0 139 99 247 191 l31 26 -243 559 c-133 308 -252 579 -263 604 -11 25
-65 149 -120 275 -54 127 -105 244 -113 260 -7 17 -30 68 -50 115 -20 47 -47
109 -61 138 -13 28 -35 80 -49 115 -15 34 -39 90 -56 125 -16 35 -29 65 -29
68 0 3 -11 29 -24 57 -13 29 -38 86 -55 127 -18 41 -42 95 -53 120 -11 25 -49
113 -85 195 -35 83 -75 174 -89 203 -13 29 -24 55 -24 57 0 2 -12 30 -26 62
-14 32 -32 74 -40 93 -9 19 -22 49 -30 65 -19 41 -88 202 -129 300 -18 44 -44
105 -58 135 -14 30 -37 83 -51 117 -15 35 -37 87 -50 115 -14 29 -41 91 -61
138 -20 47 -43 99 -50 115 -8 17 -43 98 -78 180 -36 83 -76 176 -91 207 -14
31 -26 59 -26 61 0 3 -15 38 -33 79 -97 210 -130 297 -123 321 7 28 36 42 69
33 14 -4 283 -360 772 -1023 733 -993 1483 -2007 2135 -2888 179 -241 328
-443 332 -449 5 -7 27 -3 65 11 176 66 313 120 319 125 6 7 -3 85 -30 263 -22
138 -43 276 -66 430 -11 77 -27 183 -35 235 -8 52 -21 140 -29 195 -38 252
-58 387 -71 475 -8 52 -24 158 -35 235 -12 77 -28 183 -35 235 -8 52 -24 158
-35 235 -11 77 -25 163 -30 190 -5 28 -12 75 -15 105 -4 30 -13 92 -21 138
-17 93 -13 119 22 132 49 19 63 2 121 -146 30 -76 88 -222 128 -324 40 -102
90 -228 110 -280 20 -52 74 -189 120 -305 46 -115 104 -264 129 -330 26 -66
51 -129 56 -140 5 -11 35 -85 66 -165 31 -80 89 -228 129 -330 40 -102 90
-228 110 -280 78 -200 123 -316 136 -342 14 -31 33 -34 102 -19 23 6 97 18
164 27 l121 17 6 31 c3 17 13 96 21 176 8 80 17 159 20 175 3 17 12 93 20 170
8 77 22 199 30 270 8 72 22 193 30 270 8 77 17 154 20 170 3 17 12 95 21 175
9 80 22 199 29 265 7 66 21 185 29 265 9 80 18 161 21 180 3 19 12 94 20 165
28 260 35 322 50 455 9 74 23 191 31 260 8 69 17 145 19 170 3 25 12 106 20
180 49 422 54 465 80 705 8 72 23 209 35 305 11 96 27 238 36 315 8 77 21 194
29 260 7 66 21 188 30 270 20 184 24 195 69 195 18 0 38 -6 44 -12z"/>
<path d="M9541 12220 c-112 -10 -231 -23 -265 -29 -33 -6 -90 -15 -126 -20
-230 -35 -542 -111 -765 -186 -135 -45 -369 -133 -440 -165 -11 -5 -51 -23
-90 -40 -1188 -533 -2155 -1521 -2668 -2725 -181 -423 -319 -921 -367 -1317
-6 -48 -12 -93 -15 -100 -8 -25 -37 -459 -31 -473 5 -13 55 -15 345 -15 l339
0 6 98 c15 231 49 480 96 711 17 88 29 135 74 303 111 412 353 927 614 1308
171 249 338 448 564 672 403 400 885 724 1408 948 127 54 416 157 505 180 17
5 73 19 126 33 595 159 1318 190 1919 82 338 -61 720 -169 937 -266 23 -11 44
-19 47 -19 27 0 401 -190 536 -272 182 -110 209 -127 349 -227 599 -429 1092
-1008 1424 -1675 123 -247 219 -495 295 -761 100 -351 143 -609 167 -1007 l7
-108 349 0 350 0 -5 58 c-3 31 -8 116 -11 187 -6 126 -11 171 -40 380 -29 203
-79 437 -135 635 -12 41 -25 89 -29 105 -13 46 -41 136 -56 175 -7 19 -28 76
-45 125 -197 549 -541 1133 -941 1600 -114 133 -395 418 -503 511 -38 32 -88
75 -110 95 -39 34 -95 78 -236 185 -277 212 -708 463 -1045 606 -170 73 -312
128 -328 128 -8 0 -16 3 -20 6 -10 10 -174 63 -322 104 -44 12 -100 28 -125
36 -119 35 -440 94 -655 119 -353 41 -728 46 -1084 15z"/>
<path d="M9937 10330 c-14 -11 -53 -65 -86 -120 -210 -342 -517 -640 -839
-815 -56 -31 -82 -68 -82 -120 0 -47 34 -80 159 -155 286 -170 585 -471 759
-764 75 -126 91 -141 146 -141 60 0 85 22 140 116 196 338 499 638 840 829 62
35 96 78 96 121 0 48 -41 89 -155 158 -315 189 -592 471 -785 799 -23 40 -54
81 -68 92 -32 26 -92 26 -125 0z"/>
<path d="M7825 8892 c-5 -4 -36 -45 -67 -92 -93 -138 -220 -259 -350 -334 -82
-48 -77 -88 20 -146 130 -77 259 -205 345 -341 23 -37 50 -72 59 -78 29 -18
60 5 105 77 82 132 219 267 350 346 92 55 96 95 15 142 -130 75 -263 202 -350
334 -62 94 -68 100 -97 100 -11 0 -24 -4 -30 -8z"/>
<path d="M12052 8810 c-76 -119 -192 -235 -314 -317 -87 -58 -98 -68 -98 -94
0 -25 9 -35 60 -67 151 -96 276 -218 356 -349 47 -78 73 -99 102 -84 11 6 46
50 78 98 75 113 207 243 316 313 126 80 125 97 -8 186 -113 74 -234 196 -310
309 -52 78 -64 90 -92 93 -29 3 -34 -2 -90 -88z"/>
</g>
</svg>
